<?xml version="1.0" encoding="utf-8"?>
<!-- Generator: Adobe Illustrator 26.3.1, SVG Export Plug-In . SVG Version: 6.00 Build 0)  -->
<svg version="1.1" id="Layer_1" xmlns="http://www.w3.org/2000/svg" xmlns:xlink="http://www.w3.org/1999/xlink" x="0px" y="0px"
	 viewBox="0 0 600 600" style="enable-background:new 0 0 600 600;" xml:space="preserve">
<style type="text/css">
	.st0{opacity:0.2;}
	.st1{fill:#CBCBCB;}
	.st2{fill:#2B83FC;}
	.st3{fill:#FFFFFF;}
	.st4{clip-path:url(#SVGID_00000108304360263739181050000005499974694572941716_);}
	.st5{opacity:0.3;}
	.st6{fill:#ECEFF1;}
	.st7{fill:#CFCFCF;}
	.st8{fill:url(#SVGID_00000070080248100537205390000001617777856385378188_);}
	.st9{fill:url(#SVGID_00000142151921254854401040000005023150726491856518_);}
	.st10{fill:#D2F0FF;}
	.st11{opacity:0.3;fill:#1047C4;enable-background:new    ;}
	.st12{fill:#EA4335;}
	.st13{opacity:0.3;fill:#2B83FC;enable-background:new    ;}
	.st14{fill-rule:evenodd;clip-rule:evenodd;fill:#FBBC05;}
	.st15{fill:none;stroke:#FFFFFF;stroke-width:3;stroke-miterlimit:10;}
	.st16{fill-rule:evenodd;clip-rule:evenodd;fill:#34A853;}
	.st17{fill-rule:evenodd;clip-rule:evenodd;fill:#2B83FC;}
	.st18{fill:#4285F4;}
	.st19{fill:#FBBC04;}
	.st20{fill:#0F9D58;}
</style>
<g id="Layer_1_00000101812585064562847320000003164349565946770879_">
	<g id="svg_shadow" class="st0">
		<circle class="st1" cx="300" cy="300" r="241.5"/>
	</g>
	<g id="base">
		
			<image style="overflow:visible;opacity:0.2;" width="535" height="535" xlink:href="CA39B26A.png"  transform="matrix(1 0 0 1 32.4882 32.8286)">
		</image>
		<g>
			<g>
				<circle class="st2" cx="300.5" cy="300" r="241.5"/>
				<path class="st3" d="M300.5,73.5c124.7,0.2,225.6,101.4,225.4,226s-101.4,225.6-226,225.4c-124.7-0.2-225.6-101.4-225.4-226
					c0.1-90.6,54.4-172.3,137.9-207.6C240.2,79.5,270.2,73.4,300.5,73.5 M300.5,58.5C167.1,58.5,59,166.6,59,300
					s108.1,241.5,241.5,241.5S542,433.4,542,300S433.9,58.5,300.5,58.5z"/>
			</g>
		</g>
	</g>
	<g>
		<defs>
			<circle id="SVGID_1_" cx="300.5" cy="300" r="226.5"/>
		</defs>
		<clipPath id="SVGID_00000055667246234595013520000016698131758921482373_">
			<use xlink:href="#SVGID_1_"  style="overflow:visible;"/>
		</clipPath>
		<g style="clip-path:url(#SVGID_00000055667246234595013520000016698131758921482373_);">
			<g class="st5">
				
					<image style="overflow:visible;enable-background:new    ;" width="1398" height="1984" xlink:href="CA39B26D.png"  transform="matrix(0.24 0 0 0.24 227.53 193.71)">
				</image>
			</g>
			<path class="st6" d="M278.4,229.8h233.7c8.2,0,14.8,6.6,14.8,14.8V619c0,8.2-6.6,14.8-14.8,14.8H278.4c-8.2,0-14.8-6.6-14.8-14.8
				V244.7C263.6,236.5,270.3,229.8,278.4,229.8z"/>
			<rect x="283.9" y="270.3" class="st3" width="243.1" height="363.5"/>
			<rect x="283.9" y="268.3" class="st7" width="243.1" height="4"/>
			
				<linearGradient id="SVGID_00000158030856757122308100000002734440247203725457_" gradientUnits="userSpaceOnUse" x1="283.94" y1="-1165.4843" x2="527" y2="-1165.4843" gradientTransform="matrix(1 0 0 -1 0 -711.4293)">
				<stop  offset="0" style="stop-color:#FFFFFF;stop-opacity:0.5"/>
				<stop  offset="1" style="stop-color:#FFFFFF;stop-opacity:0.8"/>
			</linearGradient>
			
				<rect x="283.9" y="272.3" style="fill:url(#SVGID_00000158030856757122308100000002734440247203725457_);" width="243.1" height="363.5"/>
			
				<linearGradient id="SVGID_00000054988784333325934450000009872332996631805619_" gradientUnits="userSpaceOnUse" x1="365.48" y1="-962.7693" x2="454.93" y2="-962.7693" gradientTransform="matrix(1 0 0 -1 0 -711.4293)">
				<stop  offset="0" style="stop-color:#FFFFFF;stop-opacity:0.5"/>
				<stop  offset="1" style="stop-color:#FFFFFF;stop-opacity:0.8"/>
			</linearGradient>
			<path style="fill:url(#SVGID_00000054988784333325934450000009872332996631805619_);" d="M390.7,246.9h33.1c2.5,0,4.5,2,4.5,4.5
				l0,0c0,2.5-2,4.5-4.5,4.5h-33.1c-2.5,0-4.5-2-4.5-4.5l0,0C386.3,248.9,388.3,246.9,390.7,246.9z"/>
			<circle class="st10" cx="324.8" cy="456.7" r="11.2"/>
			<circle class="st10" cx="324.8" cy="494.2" r="11.2"/>
			<rect x="345.1" y="451.7" class="st10" width="137.6" height="12"/>
			<rect x="345.1" y="488.6" class="st10" width="137.6" height="12"/>
			<circle class="st3" cx="170.1" cy="286.7" r="7.3"/>
		</g>
	</g>
	<circle class="st3" cx="335.4" cy="163.9" r="7.3"/>
	<circle class="st11" cx="229.3" cy="146.5" r="81"/>
	<circle class="st11" cx="92.2" cy="286.7" r="59.3"/>
	<circle class="st10" cx="83.8" cy="286.7" r="59.3"/>
	<circle class="st11" cx="138.9" cy="435.8" r="62.8"/>
	<circle class="st10" cx="129.1" cy="435.8" r="62.8"/>
	<path class="st12" d="M82.1,262.9c8.2-6.6,20.2-5.4,26.9,2.8s5.4,20.2-2.8,26.9c-0.5,0.4-1,0.8-1.6,1.2c-4.4,2.8-7.7,7.5-9.8,14
		c-0.2,0.5-0.4,1-0.6,1.5c-1.3,2.7-3.6,4.6-6.5,5.4c-5.4,1.4-10.9-1.9-12.3-7.4c-0.2-0.8-0.3-1.6-0.3-2.5v-3.4
		c0-1.9-1.5-3.3-3.4-3.3c0,0,0,0,0,0h-0.1c-1.9,0-3.3,1.5-3.3,3.4l0,0v3.4c0,9.3,7.6,16.9,16.9,16.9l0,0c1.4,0,2.8-0.2,4.1-0.5
		c5.7-1.5,10.2-5.8,12-11.4c1.7-5,4-8.4,7.1-10.4c11.9-7.9,15.2-23.9,7.3-35.8c-7.9-11.9-23.9-15.2-35.8-7.3
		c-5.3,3.5-9.1,8.8-10.7,15c-0.5,1.8,0.6,3.6,2.4,4.1c0.3,0.1,0.6,0.1,0.8,0.1l0,0c1.5,0,2.9-1,3.3-2.5
		C76.5,269,78.8,265.4,82.1,262.9z"/>
	<path class="st2" d="M51.3,283.1L51.3,283.1c2,0,3.6,1.6,3.6,3.6v0.1c0,2-1.6,3.6-3.6,3.6h0c-2,0-3.6-1.6-3.6-3.6v-0.1
		C47.7,284.7,49.3,283.1,51.3,283.1z"/>
	<path class="st2" d="M68.2,283.1L68.2,283.1c2,0,3.6,1.6,3.6,3.6v0.1c0,2-1.6,3.6-3.6,3.6h-0.1c-2,0-3.6-1.6-3.6-3.6v-0.1
		C64.6,284.7,66.2,283.1,68.2,283.1z"/>
	<path class="st2" d="M87.3,283.4L87.3,283.4c1.9,0,3.4,1.5,3.4,3.4v0c0,1.9-1.5,3.4-3.3,3.4h-0.1c-1.9,0-3.3-1.5-3.3-3.4v0
		C84,284.9,85.5,283.4,87.3,283.4z"/>
	<circle class="st13" cx="129.1" cy="435.8" r="34.9"/>
	<circle class="st2" cx="129.1" cy="435.8" r="13.9"/>
	<path class="st14" d="M133.9,435.4c0-2.8,2.2-5,5-5c0,0,0.1,0,0.1,0h36.1c0.1,0,0.1,0,0.2,0h0.1c0.1,0,0.2-0.1,0.3-0.1l0.1-0.1
		l0.1-0.1l0.1-0.1c0,0,0.1-0.1,0.1-0.2c0,0,0-0.1,0-0.1c0-0.1,0.1-0.3,0.1-0.4v-0.2c0-0.1,0-0.2,0-0.2c-0.1-0.1-0.1-0.2-0.2-0.2
		l-0.2-0.1c0,0-0.1-0.1-0.2-0.1c-0.1,0-0.2-0.1-0.3-0.1h-19.9c-2.7,0.4-5.3-1.5-5.6-4.3s1.5-5.3,4.3-5.6c0.4-0.1,0.9-0.1,1.3,0h20
		h0.1h0.1h0.1l0.2-0.1l0.1-0.1c0.1-0.1,0.2-0.3,0.3-0.5v-0.2c0-0.1,0-0.2,0-0.3c0-0.1-0.1-0.1-0.1-0.2c0-0.1-0.1-0.1-0.1-0.1
		l-0.1-0.1l-0.1-0.1l-0.1-0.1l-0.1-0.1h-0.1c-0.1-0.1-0.2-0.1-0.4-0.1h-12.9c-2.7,0.3-5.2-1.6-5.6-4.3c-0.3-2.7,1.6-5.2,4.3-5.6
		c0.4-0.1,0.8-0.1,1.3,0h13c0.1,0,0.1,0,0.2-0.1h0.1l0.1-0.1l0.1-0.1c0.1-0.1,0.2-0.2,0.2-0.3c0-0.1,0.1-0.1,0.1-0.2V406v-0.1
		c0-0.2,0-0.3-0.1-0.5l-0.1-0.1c-0.1-0.1-0.1-0.2-0.3-0.3l-0.1-0.1l-0.2-0.1h-0.1h-0.1h-8.1c-2.7,0.3-5.2-1.7-5.5-4.5
		s1.7-5.2,4.5-5.5c0.3,0,0.7,0,1,0h47.4c1.7,0,3.1,1.4,3.1,3.1v36c0,1.7-0.9,3.3-2.4,4.2l-31.5,19.1c-1.4,1-3,1.3-4.7,1.1
		c-1.1-0.3-2.1-1-2.6-2c-1.1-2.1-0.7-5.1,2.5-7l0,0l11-7c0.3-0.2,0.5-0.6,0.5-0.9c0-0.5-0.4-1-0.9-1.1H139
		C136.2,440.4,134,438.2,133.9,435.4C133.9,435.5,133.9,435.4,133.9,435.4L133.9,435.4z"/>
	<circle class="st3" cx="201.8" cy="419" r="7.3"/>
	<line class="st15" x1="201.8" y1="419" x2="263.6" y2="419"/>
	<circle class="st10" cx="217.7" cy="146.5" r="81"/>
	<path class="st16" d="M217.7,116.6c-26.3,0-46.1,16.9-54.2,25.2c-2.4,2.5-2.4,6.4,0.1,8.8c0,0,0,0,0,0c8.6,8.4,29.4,25.8,54.1,25.8
		s45.5-17.4,54.1-25.8c2.5-2.4,2.5-6.4,0.1-8.8c0,0,0,0,0,0C263.7,133.5,244,116.6,217.7,116.6z M219.8,167.5
		c-11.6,1.2-22-7.3-23.2-18.9s7.3-22,18.9-23.2c11.6-1.2,22,7.3,23.2,18.9c0.1,1.4,0.1,2.9,0,4.3
		C237.7,158.6,229.8,166.5,219.8,167.5L219.8,167.5z"/>
	<path class="st17" d="M219.1,139.5c-3.9-0.8-7.6,1.7-8.4,5.6c-0.8,3.9,1.7,7.6,5.6,8.4c3.9,0.8,7.6-1.7,8.4-5.6
		c0.2-0.9,0.2-1.9,0-2.8C224.1,142.2,221.9,140,219.1,139.5z"/>
	<line class="st15" x1="167.4" y1="286.7" x2="263.6" y2="286.7"/>
	<polyline class="st15" points="335.4,163.9 446.8,163.9 446.8,229.8 	"/>
</g>
<g>
	<g>
		<g>
			<path class="st12" d="M352.9,366.3l26.9-15.6c6.3-3.7,8.5-11.8,4.9-18.1c-3.7-6.3-11.8-8.5-18.1-4.9l-46.6,26.9L352.9,366.3z"/>
		</g>
		<g>
			<path class="st18" d="M373.3,406.3c4.6,0,9-2.4,11.5-6.6c3.7-6.3,1.5-14.4-4.9-18.1l-46.6-26.9c-6.3-3.7-14.4-1.5-18.1,4.9
				c-3.7,6.3-1.5,14.4,4.9,18.1l46.6,26.9C368.7,405.7,371,406.3,373.3,406.3z"/>
		</g>
		<g>
			<path class="st19" d="M419.6,406.3c2.2,0,4.5-0.6,6.6-1.8l46.6-26.9l-32.5-11.9l-27.4,15.8c-6.3,3.7-8.5,11.8-4.9,18.1
				C410.5,403.9,415,406.3,419.6,406.3z"/>
		</g>
		<g>
			<path class="st20" d="M466.1,379.4c4.6,0,9-2.4,11.5-6.6c3.7-6.3,1.5-14.4-4.9-18.1l-46.6-26.9c-6.3-3.7-14.4-1.5-18.1,4.9
				c-3.7,6.3-1.5,14.4,4.9,18.1l46.6,26.9C461.6,378.9,463.8,379.4,466.1,379.4z"/>
		</g>
	</g>
</g>
</svg>
